# xmcd
#
# Track frame offsets:
# 150
# 18866
# 36813
# 53766
# 69783
# 88021
# 106279
# 121998
# 137239
# 152171
# 168410
# 185030
# 200715
# 214885
#
# Disc length: 3092 seconds
#
#
# Revision: 0
# Processed by: cddbd v1.5.2PL0 Copyright (c) Steve Scherf et al.
# Submitted via: FreeRIP 2.945 
#
DISCID=c30c120e
DTITLE=Criado em Galpão - De Campo e de Mato
DYEAR=1900
DGENRE=
TTITLE0=De Campo e de Mato
TTITLE1=Suando a Picanha
TTITLE2=Um Paisano Domador
TTITLE3=Nos Campos Verdes
TTITLE4=Santuário Galponeiro
TTITLE5=Farrancho
TTITLE6=Bombeando o Tranco da Tropa
TTITLE7=Sou Louco Por Ela
TTITLE8=Anoitecer no Pampa
TTITLE9=Se Guasqueando Pros Dois Lados
TTITLE10=Um Mate pra Dois
TTITLE11=Quando vem Cantando os Galos
TTITLE12=Pra Desfilar em Livramento
TTITLE13=Ao Trote  a Dentro
EXTD=
EXTT0=
EXTT1=
EXTT2=
EXTT3=
EXTT4=
EXTT5=
EXTT6=
EXTT7=
EXTT8=
EXTT9=
EXTT10=
EXTT11=
EXTT12=
EXTT13=
PLAYORDER=
